<!--?xml version="1.0" encoding="utf-8"?-->
<!-- Generator: Adobe Illustrator 19.1.1, SVG Export Plug-In . SVG Version: 6.00 Build 0)  -->
<svg version="1.1" id="_x31_0" xmlns="http://www.w3.org/2000/svg" xmlns:xlink="http://www.w3.org/1999/xlink" x="0px" y="0px" viewBox="0 0 512 512" style="width: 256px; height: 256px; opacity: 1;" xml:space="preserve">
<style type="text/css">
	.st0{fill:#374149;}
</style>
<g>
	<path class="st0" d="M62.128,388.782c1.082,3.645,3.063,7.027,5.821,9.789l45.5,45.5c2.774,2.77,6.144,4.742,9.777,5.817
		c1.074,3.633,3.047,7.004,5.817,9.777l45.5,45.5c9.117,9.114,23.953,9.114,33.066,0l60.086-60.086
		c3.562-3.562,5.734-8.054,6.473-12.75c4.699-0.738,9.187-2.91,12.75-6.473l60.086-60.086c3.594-3.594,5.793-8.074,6.55-12.754
		c4.692-0.766,9.164-2.961,12.738-6.535l60.086-60.086c3.45-3.45,5.618-7.782,6.418-12.344c4.57-0.813,8.898-2.973,12.332-6.406
		l60.082-60.082c9.078-9.078,9.051-23.883-0.066-33l-45.5-45.5c-2.758-2.758-6.133-4.734-9.773-5.82
		c-1.086-3.641-3.062-7.016-5.821-9.774l-45.5-45.5c-2.762-2.762-6.14-4.742-9.785-5.824c-1.098-3.657-3.094-7.055-5.875-9.836
		l-45.5-45.5c-9.082-9.078-23.855-9.078-32.93,0l-60.086,60.082c-3.446,3.446-5.622,7.754-6.45,12.289
		c-4.523,0.821-8.836,3-12.301,6.466l-60.086,60.082c-3.574,3.574-5.782,8.043-6.554,12.722c-4.668,0.766-9.141,2.973-12.734,6.566
		l-60.086,60.086c-3.562,3.562-5.742,8.046-6.488,12.734c-4.687,0.746-9.172,2.926-12.734,6.488L6.855,304.41
		c-9.114,9.118-9.145,23.918-0.066,32.996l45.5,45.504C55.07,385.692,58.472,387.684,62.128,388.782z M129.781,354.75
		l-26.004,26.008c-1.953,1.949-5.043,1.949-6.992,0c-1.95-1.95-1.95-5.039,0-6.993l45.098-45.094c1.949-1.949,5.039-1.949,6.988,0
		l30.516,30.512c1.945,1.95,1.945,5.039-0.004,6.988c-1.95,1.95-5.11,2.02-7.059,0.07l-11.426-11.426
		C152.296,346.211,138.386,346.145,129.781,354.75z M140.113,298.18c2.922,2.176,6.434,3.008,9.898,2.543
		c0.07,0.004,0.129,0.004,0.203,0.012c-0.477,2.816,0.054,5.75,1.453,8.355c0.29,0.621,0.614,1.226,0.981,1.812
		c-2.926-2.175-6.492-3.066-9.902-2.542c-0.062,0-0.125,0-0.191-0.004c0.422-2.871-0.074-5.77-1.458-8.355
		C140.808,299.379,140.484,298.77,140.113,298.18z M230.761,229.501c0.262,0.613,0.555,1.21,0.887,1.789
		c-2.809-1.965-6.234-2.778-9.41-2.254c-0.172,0.004-0.282,0.004-0.375,0.004c0.473-2.738,0.016-5.586-1.277-8.134
		c-0.254-0.59-0.539-1.171-0.864-1.73c2.93,1.938,6.329,2.649,9.626,2.238c0.058,0.004,0.109,0.004,0.172,0.008
		C229.097,224.09,229.511,226.95,230.761,229.501z M221.187,249.368c1.949-1.95,5.038-1.95,6.988,0l30.515,30.511
		c1.946,1.95,1.946,5.039-0.004,6.989c-1.949,1.949-5.038,1.949-6.988,0l-11.426-11.426c-8.602-8.602-22.582-8.602-31.184,0
		l-25.941,25.942c-1.95,1.95-5.11,2.019-7.058,0.07c-1.95-1.95-1.879-5.11,0.07-7.058L221.187,249.368z M309.269,149.266
		c0.211,0.687,0.332,1.378,0.625,2.054c-1.906-1.113-4.027-1.546-6.156-1.606c-0.125-0.004-0.242-0.05-0.363-0.05
		c-0.492,0-0.981,0.031-1.527,0.031c-0.196,0-0.402-0.012-0.614-0.019c0.344-2.25-0.074-4.539-0.898-6.676
		c-0.23-0.715-0.379-1.461-0.707-2.122c1.961,1.141,4.184,1.551,6.41,1.594c0.094,0.004,0.176,0.035,0.266,0.035
		c0.363,0,0.73-0.016,1.113-0.016c0.086-0.008,0.168,0.012,0.25,0.004c0.238,0,0.492,0.012,0.758,0.031
		C308.022,144.762,308.452,147.063,309.269,149.266z M300.558,169.993c1.887-1.883,5.043-1.95,6.992,0l30.512,30.512
		c1.95,1.949,1.883,5.105,0,6.988c-1.949,1.949-5.106,2.015-7.054,0.07l-11.426-11.43c-8.602-8.602-22.516-8.664-31.118-0.066
		l-26.012,26.011c-1.949,1.95-5.038,1.95-6.988,0c-1.949-1.949-1.949-5.038,0-6.988L300.558,169.993z M281.683,282.008
		c-0.258-0.594-0.539-1.175-0.867-1.738c2.894,1.918,6.308,2.679,9.57,2.183c0.133,0,0.207,0,0.29,0.004
		c-0.469,2.707-0.027,5.531,1.195,8.094c0.258,0.621,0.543,1.234,0.875,1.836c-2.852-1.996-6.294-2.762-9.574-2.242
		c-0.074-0.004-0.145-0.004-0.219-0.008C283.429,287.403,282.972,284.555,281.683,282.008z M213.742,371.997
		c-2.918-2.172-6.473-3.063-9.875-2.543c-0.074-0.004-0.145-0.004-0.218-0.008c0.476-2.824-0.059-5.758-1.461-8.363
		c-0.29-0.617-0.614-1.222-0.977-1.809c2.918,2.176,6.48,3.062,9.882,2.547c0.07,0,0.137,0,0.211,0.008
		c-0.473,2.82,0.058,5.754,1.457,8.359C213.05,370.805,213.374,371.41,213.742,371.997z M240.542,427.332
		c-1.95,1.95-5.176,1.954-7.125,0.004l-11.426-11.426c-8.602-8.606-22.445-8.606-31.05,0l-26.008,26.008
		c-1.949,1.949-5.11,1.878-7.054-0.07c-1.883-1.879-1.954-5.039,0-6.988l45.094-45.098c1.95-1.95,5.11-1.883,6.992,0l30.512,30.511
		C242.425,422.227,242.491,425.383,240.542,427.332z M319.847,348.028c-1.95,1.949-5.106,1.882-7.055-0.066l-11.426-11.426
		c-8.606-8.601-22.515-8.534-31.117,0.066l-25.942,25.942c-1.95,1.95-5.176,1.95-7.125,0c-1.883-1.878-1.883-5.11,0.066-7.058
		l45.027-45.027c1.949-1.95,5.109-1.883,6.992,0l30.512,30.511C321.73,342.918,321.796,346.078,319.847,348.028z M399.222,268.653
		c-1.949,1.95-5.172,1.95-7.125,0l-11.422-11.426c-8.606-8.602-22.454-8.602-31.051,0l-26.011,26.011
		c-1.95,1.95-5.11,1.883-7.059-0.066c-1.878-1.882-1.949-5.042,0-6.992l45.098-45.098c1.883-1.882,5.11-1.878,6.993,0l30.511,30.516
		C401.105,263.547,401.105,266.77,399.222,268.653z M370.339,210.246c0.226,0.742,0.378,1.504,0.703,2.211
		c-2.61-1.641-5.637-2.102-8.555-1.684c-0.054-0.003-0.106,0-0.16-0.007c0.422-2.746,0.02-5.586-1.367-8.102
		c-0.098-0.223-0.125-0.473-0.238-0.691c1.961,1.14,4.184,1.55,6.41,1.594c0.09,0,0.172,0.035,0.262,0.035
		c0.363,0,0.734-0.016,1.125-0.02c0.102-0.008,0.203,0.016,0.305,0.004c0.219,0.004,0.45,0.012,0.691,0.027
		C369.171,205.837,369.57,208.102,370.339,210.246z M447.476,152.25l30.515,30.512c1.95,1.949,2.016,5.106,0.066,7.058
		c-1.95,1.946-5.11,1.879-7.058-0.07l-11.426-11.426c-8.602-8.602-22.516-8.535-31.118,0.066l-26.008,26.012
		c-1.949,1.949-5.109,1.882-7.058-0.066c-1.882-1.883-1.949-5.043,0-6.993l45.098-45.094
		C442.437,150.298,445.597,150.368,447.476,152.25z M386.386,91.157l30.512,30.512c1.949,1.949,1.949,5.039,0,6.988
		c-1.95,1.95-5.043,1.95-6.988,0.004l-11.43-11.426c-8.601-8.606-22.578-8.602-31.179,0l-26.012,26.008
		c-1.949,1.949-5.039,1.949-6.988,0c-1.95-1.95-1.95-5.039,0-6.989l45.094-45.098C381.346,89.208,384.437,89.208,386.386,91.157z
		 M273.14,75.094l45.094-45.098c1.949-1.949,5.11-1.882,7.058,0.066l30.512,30.516c1.882,1.878,1.949,5.038,0,6.988
		c-1.95,1.949-5.106,1.882-6.989,0L337.39,56.142c-8.602-8.602-22.582-8.602-31.183,0l-26.012,26.007
		c-1.949,1.95-5.039,1.95-6.988,0C271.257,80.2,271.19,77.044,273.14,75.094z M194.304,153.93l45.098-45.098
		c1.883-1.883,5.106-1.883,7.054,0.066l30.512,30.511c1.883,1.883,1.886,5.11,0,6.993c-1.95,1.949-5.172,1.945-7.054,0.066
		l-11.426-11.426c-8.602-8.606-22.515-8.668-31.117-0.066l-26.012,26.007c-1.949,1.95-5.038,1.95-6.988,0
		C192.422,159.036,192.355,155.879,194.304,153.93z M114.999,233.235l45.027-45.031c1.95-1.946,5.106-1.879,7.055,0.07
		l30.515,30.511c1.883,1.883,1.95,5.043,0,6.988c-1.949,1.954-5.109,1.883-6.992,0l-11.422-11.422
		c-8.606-8.606-22.586-8.606-31.188-0.004l-25.941,25.942c-1.95,1.95-5.11,2.019-7.059,0.07
		C113.046,238.41,113.05,235.184,114.999,233.235z M35.691,319.665c-1.95-1.95-2.016-5.11-0.066-7.059l45.098-45.094
		c1.949-1.949,5.105-1.882,7.054,0.066l30.515,30.512c1.883,1.882,1.95,5.043,0,6.992c-1.949,1.95-5.179,1.95-7.058,0.066
		l-11.426-11.426c-8.606-8.602-22.515-8.672-31.121-0.066l-26.004,26.008C40.73,321.614,37.64,321.614,35.691,319.665z" style="fill: rgb(230, 143, 172);"></path>
</g>
</svg>
