<!--?xml version="1.0" encoding="utf-8"?-->
<!-- Generator: Adobe Illustrator 19.1.1, SVG Export Plug-In . SVG Version: 6.00 Build 0)  -->
<svg version="1.1" id="_x31_0" xmlns="http://www.w3.org/2000/svg" xmlns:xlink="http://www.w3.org/1999/xlink" x="0px" y="0px" viewBox="0 0 512 512" style="width: 256px; height: 256px; opacity: 1;" xml:space="preserve">
<style type="text/css">
	.st0{fill:#374149;}
</style>
<g>
	<path class="st0" d="M446.07,384.247c87.906-87.906,87.906-230.406,0-318.318c-87.911-87.906-230.411-87.906-318.322,0
		c-16.207,16.207-29.383,34.29-39.618,53.524C50.635,189.27,52.518,274.361,95.28,343.247c5.605,9.074,11.91,17.84,18.926,26.211
		c0.004,0.004,0.004,0.008,0.004,0.008l-27.02,27.027l-0.066,0.062l-12.668-12.668l-63.363,63.364
		c-14.79,14.789-14.79,38.867,0,53.656c14.789,14.79,38.867,14.79,53.656,0l63.364-63.363l-12.66-12.66l27.09-27.09
		C230.968,471.9,362.933,467.385,446.07,384.247z M199.155,109.001c53.039-23.77,77.844,18.789,146.086,21.019
		c26.57,0.828,47.324,10.172,61.645,24.492c18.426,18.426,26.262,45.149,22.058,72.914c-7.523,49.352-43.594,48.262-60.664,113.075
		c-3.492,13.214-8.973,21.457-15.746,26.351c-0.191,0.137-0.386,0.274-0.582,0.41c-1.493,1.023-3.047,1.886-4.657,2.614
		c-0.277,0.125-0.558,0.254-0.843,0.37c-1.727,0.719-3.508,1.297-5.348,1.723c-0.074,0.015-0.149,0.035-0.222,0.05
		c-20.126,4.547-46.29-7.094-67.466-9.098c-35.187-3.426-64.606,6.797-81.215-9.809c-0.633-0.637-1.238-1.332-1.836-2.042
		c-0.246-0.298-0.484-0.602-0.722-0.91c-1.172-1.512-2.27-3.184-3.281-5.055c-0.157-0.285-0.305-0.586-0.458-0.878
		c-2.808-5.492-4.973-12.524-6.418-21.578c-6.328-41.098,6.125-46.91-15.047-99.95C141.554,165.254,170.303,121.973,199.155,109.001
		z M52.194,479.736c-5.504,5.5-14.426,5.5-19.93,0c-5.5-5.504-5.5-14.426,0-19.93c5.504-5.5,14.426-5.5,19.93,0
		C57.694,465.31,57.694,474.232,52.194,479.736z" style="fill: rgb(230, 143, 172);"></path>
	<path class="st0" d="M323.445,278.025c24.805-20.45,27.969-57.555,7.058-82.93c-20.914-25.375-57.914-29.375-82.668-8.981
		c-24.86,20.395-28.024,57.501-7.114,82.88C261.636,294.368,298.636,298.365,323.445,278.025z M286.651,191.098
		c9.395-0.469,17.227,4.879,17.539,11.938c0.031,0.68-0.07,1.336-0.175,1.992c-0.047,0.286-0.074,0.566-0.141,0.844
		c-1.454,5.774-7.985,10.34-16.082,10.652c-9.394,0.469-17.23-4.874-17.594-11.878C269.89,197.582,277.257,191.563,286.651,191.098z
		" style="fill: rgb(230, 143, 172);"></path>
</g>
</svg>
