<!--?xml version="1.0" encoding="utf-8"?-->
<!-- Generator: Adobe Illustrator 19.1.1, SVG Export Plug-In . SVG Version: 6.00 Build 0)  -->
<svg version="1.1" id="_x31_0" xmlns="http://www.w3.org/2000/svg" xmlns:xlink="http://www.w3.org/1999/xlink" x="0px" y="0px" viewBox="0 0 512 512" style="width: 256px; height: 256px; opacity: 1;" xml:space="preserve">
<style type="text/css">
	.st0{fill:#374149;}
</style>
<g>
	<path class="st0" d="M237.415,475.651c6.035,1.986,12.322,3.06,18.603,3.06c6.286,0,12.568-1.074,18.522-3.06
		c102.855-34.974,175.117-121.212,199.013-161.971C496.291,274.898,512,229.673,512,186.185c0-47.873-19.015-93.844-68.874-127.082
		c-56.222-37.457-124.599-33.819-187.107,8.761c-62.507-42.58-130.886-46.218-187.107-8.761
		c-95.168,63.497-78.135,173.134-30.428,254.577C62.379,354.439,134.645,440.677,237.415,475.651z M119.348,134.755
		c11.162-7.441,22.487-10.335,33.569-10.335c26.456,0,51.094,16.702,65.895,29.27c21.578,18.353,52.834,18.353,74.413,0
		c21.002-17.776,61.846-43.986,99.384-18.934c52.091,34.724,19.099,104.591,2.482,132.952
		c-19.1,32.491-72.678,91.281-139.073,117.822c-66.391-26.541-119.969-85.33-139.069-117.822
		C100.329,239.347,67.341,169.479,119.348,134.755z" style="fill: rgb(230, 143, 172);"></path>
</g>
</svg>
