<!--?xml version="1.0" encoding="utf-8"?-->
<!-- Generator: Adobe Illustrator 18.1.1, SVG Export Plug-In . SVG Version: 6.00 Build 0)  -->

<svg version="1.1" id="_x31_0" xmlns="http://www.w3.org/2000/svg" xmlns:xlink="http://www.w3.org/1999/xlink" x="0px" y="0px" viewBox="0 0 512 512" style="width: 256px; height: 256px; opacity: 1;" xml:space="preserve">
<style type="text/css">
	.st0{fill:#374149;}
</style>
<g>
	<path class="st0" d="M361.976,300.852v-0.226l-33.294,33.297v78.374c0,12.922-10.519,23.438-23.507,23.438H155.953
		c-8.59,0-16.914-0.863-24.973-2.527V353.23c0-8.386-6.793-15.113-15.113-15.113H35.891c-1.73-8.055-2.527-16.446-2.527-24.969
		V99.664c0-12.918,10.453-23.438,23.438-23.438h248.374c12.988,0,23.507,10.52,23.507,23.438v10.969l-0.113,7.762l0.113-0.114v0.227
		l31.829-31.828c-5.926-25.039-28.434-43.75-55.336-43.75H56.801C25.504,42.93,0,68.368,0,99.664v213.484
		c0,10.652,1.066,21.374,3.195,31.758c12.653,60.801,60.133,108.277,121.062,120.93c10.32,2.133,20.973,3.262,31.695,3.262h149.222
		c31.363,0,56.801-25.504,56.801-56.801v-65.542l0.113-46.016L361.976,300.852z" style="fill: rgb(230, 143, 172);"></path>
	<path class="st0" d="M508.448,99.907L454.995,46.45c-0.391-0.391-0.891-0.555-1.321-0.883c-0.438-0.336-0.886-0.637-1.355-0.906
		c-0.934-0.531-1.859-0.918-2.867-1.179c-0.422-0.11-0.844-0.192-1.278-0.254c-0.55-0.082-1.082-0.324-1.629-0.324
		c-2.843,0-5.637,1.05-7.758,3.168L202.734,282.125l-28.113,90.046c-1.321,4.23,2.129,8.39,6.25,8.39
		c0.614,0,1.238-0.086,1.86-0.281l90.05-28.118l236.05-236.05C513.202,111.743,513.03,104.484,508.448,99.907z M267.043,337.844
		l-1.824,1.824l-56.422,17.614l-11.175-11.172l17.613-56.422l1.828-1.828l8.485-0.442c2.73-0.145,5.309,0.84,7.246,2.777
		c1.937,1.938,2.922,4.516,2.781,7.25c-0.309,5.882,1.902,11.645,6.07,15.812c4.164,4.165,9.93,6.375,15.813,6.07
		c2.734-0.144,5.308,0.848,7.246,2.782c1.942,1.938,2.926,4.515,2.782,7.246L267.043,337.844z M458.94,126.051l0.215-0.214
		l1.984,1.984l2.844,3.055l1.324,1.538L458.94,126.051z M433.867,100.977l0.214-0.219l4.051,4.055l5.812,6.027l2.778,2.988
		L433.867,100.977z M418.906,86.016l0.214-0.214l1.988,1.992l2.844,3.054l1.317,1.532L418.906,86.016z M424.151,80.805l-0.015-0.02
		l22.566-22.566l49.984,49.981l-22.57,22.566l-49.774-49.77L424.151,80.805z" style="fill: rgb(230, 143, 172);"></path>
</g>
</svg>
