<!--?xml version="1.0" encoding="utf-8"?-->
<!-- Generator: Adobe Illustrator 19.1.1, SVG Export Plug-In . SVG Version: 6.00 Build 0)  -->
<svg version="1.1" id="_x31_0" xmlns="http://www.w3.org/2000/svg" xmlns:xlink="http://www.w3.org/1999/xlink" x="0px" y="0px" viewBox="0 0 512 512" style="width: 256px; height: 256px; opacity: 1;" xml:space="preserve">
<style type="text/css">
	.st0{fill:#374149;}
</style>
<g>
	<polygon class="st0" points="235.829,253.871 247.489,262.523 247.829,262.778 247.946,262.957 229.891,268.117 229.879,268.121 
		229.879,268.121 229.727,268.164 231.848,275.586 231.852,275.606 231.852,275.606 231.899,275.762 254.926,269.179 
		257.344,277.641 234.485,284.176 234.47,284.18 234.47,284.18 234.317,284.222 236.438,291.645 236.442,291.668 236.442,291.668 
		236.489,291.82 259.516,285.238 265.11,304.816 276.794,301.477 271.2,281.898 294.239,275.313 292.098,267.824 292.094,267.801 
		292.067,267.718 269.028,274.305 266.61,265.84 289.649,259.258 287.509,251.762 287.501,251.742 287.477,251.66 276.036,254.93 
		274.618,255.324 269.442,256.172 274.735,242.754 279.723,230.086 282.138,224.07 282.848,222.414 282.794,222.43 282.829,222.343 
		282.762,222.363 282.806,222.262 267.766,226.558 260.766,244.328 259.906,246.496 257.52,252.578 256.989,253.882 
		256.895,254.054 250.395,249.214 248.524,247.828 233.184,236.442 223.868,239.106 219.512,240.309 218.242,240.61 218.29,240.644 
		218.2,240.668 218.254,240.707 218.149,240.738 	" style="fill: rgb(230, 143, 172);"></polygon>
	<path class="st0" d="M88.356,334.32l-9.559-33.308c-21.164-1.566-44.402-5.336-62.426-12.41c-0.836-0.332-1.618-0.711-2.438-1.062
		c-2-0.848-3.984-1.699-5.828-2.637c-2.828-1.461-5.52-3.023-7.946-4.754v0.098c-0.05-0.035-0.113-0.063-0.16-0.098v23.141
		C0,318.981,38.305,332.039,88.356,334.32z" style="fill: rgb(230, 143, 172);"></path>
	<path class="st0" d="M104.047,388.578c-0.176-0.348-0.266-0.614-0.352-0.965l-9.117-31.906
		c-25.234-0.703-56.969-4.477-79.742-13.813c-0.566-0.234-1.125-0.473-1.68-0.714c-1.027-0.442-2.035-0.898-3.019-1.367
		c-3.602-1.734-6.981-3.629-9.977-5.758v0.102c-0.054-0.035-0.11-0.066-0.16-0.102v23.145C0,374.555,46.629,388.578,104.047,388.578
		z" style="fill: rgb(230, 143, 172);"></path>
	<path class="st0" d="M179.25,429.778l-6.398-22.266l-22.172,6.313c-3.508,0.965-7.012,1.402-10.434,1.402
		c-7.274,0-14.199-2.015-20.074-5.785c-5.695,0.351-11.129,0.438-16.125,0.438c-28.89,0-70.794-4.246-96.348-17.321
		c-2.695-1.41-5.258-2.89-7.539-4.503v0.098c-0.05-0.031-0.11-0.063-0.16-0.098v23.05c0,17.355,46.629,31.383,104.047,31.383
		c29.012,0,55.102-3.618,73.988-9.383c0.633-0.187,1.325-0.355,1.946-0.55c-0.004-0.004-0.004-0.008-0.004-0.008
		c0.047-0.023,0.102-0.035,0.153-0.051C179.778,431.618,179.516,430.742,179.25,429.778z" style="fill: rgb(230, 143, 172);"></path>
	<path class="st0" d="M72.574,279.274l-9.637-33.836c-14.379-1.754-28.84-4.469-41.289-8.766c-3.332-1.141-6.574-2.454-9.555-3.77
		c-2.805-1.226-5.519-2.629-7.977-4.031c-1.125-0.699-2.218-1.402-3.297-2.106c-0.214-0.176-0.469-0.34-0.66-0.527v0.102
		c-0.054-0.031-0.11-0.066-0.16-0.102v23.054c0,1.141,0.258,2.191,0.61,3.242C4.906,265.16,33.832,275.59,72.574,279.274z" style="fill: rgb(230, 143, 172);"></path>
	<path class="st0" d="M21.649,214.582c3.683,1.493,7.801,2.805,12.273,4.031c5.172,1.402,10.692,2.633,16.738,3.77
		c3.332,0.614,6.75,1.141,10.258,1.578c0.613-4.031,2.019-7.977,4.121-11.656c4.992-8.856,13.058-15.254,22.875-18.059l0.785-0.218
		l0.79-0.058c-0.145-0.008-0.332-0.02-0.477-0.028l0.484-0.133c-21.738-0.965-47.426-4.206-67.847-11.133
		c-3.332-1.14-6.485-2.367-9.465-3.679h-0.09c-2.805-1.226-5.519-2.633-7.977-4.122c-1.164-0.656-2.304-1.406-3.418-2.183
		c-0.176-0.153-0.382-0.282-0.539-0.446v0.102c-0.054-0.039-0.11-0.062-0.16-0.102v23.141c0,1.141,0.258,2.191,0.61,3.242
		C2.625,204.59,10.164,210.113,21.649,214.582z" style="fill: rgb(230, 143, 172);"></path>
	<path class="st0" d="M21.649,161.113c3.683,1.402,7.801,2.805,12.273,4.031c5.172,1.402,10.692,2.629,16.738,3.77
		c15.606,2.805,33.84,4.473,53.387,4.473s37.782-1.668,53.379-4.473c6.05-1.141,11.57-2.367,16.746-3.77
		c4.469-1.226,8.59-2.629,12.27-4.031c11.485-4.473,19.02-9.992,21.035-15.953c0.352-1.141,0.527-2.192,0.527-3.242v-41.023
		c0-17.27-46.542-31.383-103.957-31.383C46.629,69.511,0,83.625,0,100.894v41.023c0,1.05,0.258,2.102,0.61,3.242
		C2.625,151.121,10.164,156.64,21.649,161.113z M104.047,121.23c-13.062,0-25.25-0.879-36.031-2.278
		c-8.149-1.054-15.34-2.543-21.387-4.207c-5.082-1.406-9.293-2.984-12.531-4.734c-4.734-2.543-7.453-5.347-7.453-8.414
		c0-10.786,34.621-19.462,77.402-19.462c42.774,0,77.485,8.676,77.485,19.462c0,3.066-2.715,5.87-7.535,8.414
		c-3.246,1.75-7.454,3.328-12.45,4.734c-6.05,1.664-13.328,3.153-21.39,4.207C129.375,120.351,117.106,121.23,104.047,121.23z" style="fill: rgb(230, 143, 172);"></path>
	<path class="st0" d="M511.556,335.371l-41.989-146.469c-1.75-6.227-8.238-9.821-14.461-8.066l-23.758,6.789l-0.02,0.004l0,0
		l-0.152,0.043l17.004,59.43c4.996,0.789,10.078,0.878,15.164,0.266l11.922,41.637c-5.523,2.629-10.343,6.046-14.55,10.164
		c-0.875,10.782-6.313,20.778-14.902,27.351c-1.226,5.52-1.489,11.309-0.79,17.094l-177.766,50.926
		c-2.102-4.382-4.645-8.414-7.711-11.922l-51.543,14.816l-7.922,2.211l-0.078,0.023l0,0l-0.152,0.043l5.344,18.582l1.32,4.473
		c1.664,6.223,8.238,9.73,14.371,7.977l282.606-80.996C509.716,347.996,513.31,341.508,511.556,335.371z" style="fill: rgb(230, 143, 172);"></path>
	<path class="st0" d="M309.946,340.805l24.106-6.836l23.23-6.75l23.227-6.574l45.496-13.059c6.222-1.843,9.817-8.328,8.066-14.465
		l-18.848-65.652l-9.293-32.52l-7.363-25.77l-6.484-22.531c-1.754-6.222-8.238-9.816-14.466-8.062l-169.614,48.649L95.016,219.578
		c-3.59,1.051-6.309,3.594-7.625,6.836c-0.966,2.367-1.141,5-0.438,7.629l3.945,13.676l9.461,32.958l6.055,21.301l9.289,32.43
		l6.051,20.953l7.183,25.157c0.527,1.926,1.582,3.594,2.894,4.996c0.703,0.613,1.402,1.226,2.192,1.75
		c2.718,1.668,6.046,2.192,9.378,1.317l18.493-5.258l0.266-0.09c1.23-0.262,2.367-0.523,3.507-0.789
		c7.977-1.75,14.989-3.855,21.035-6.222l0.266-0.086l0.352-0.176l5.344-1.492l34.625-9.902L309.946,340.805z M167.07,328.184
		c-5.785-3.157-12.094-5.258-18.758-6.047c-4.293-0.614-8.676-0.703-13.149-0.176l-6.05-20.949l-1.836-6.434l-3.715-14.325
		c0.008-0.007,0.024-0.007,0.032-0.015c4.558-2.192,8.59-4.91,12.269-8.153c8.238-7.277,14.028-16.918,16.57-27.613
		c0.262-1.051,0.52-2.106,0.61-3.242c0.965-5.086,1.141-10.258,0.527-15.516l177.68-50.93c2.016,4.211,4.469,8.066,7.45,11.574
		c8.238,9.902,19.894,16.477,32.606,18.492c4.734,0.789,9.645,0.879,14.554,0.266l4.906,17.09l7.012,24.542
		c-12.797,5.962-22.352,16.657-27.082,29.367c-3.07,7.801-4.211,16.477-3.246,25.242l-9.816,2.809l-21.125,6.047l-38.833,11.133
		l-89.672,25.683l-0.266,0.086l-17.965,5.171c-1.23-2.629-2.629-5.086-4.382-7.449c-0.614-1.054-1.317-2.02-2.11-2.981
		C178.817,336.246,173.294,331.602,167.07,328.184z" style="fill: rgb(230, 143, 172);"></path>
</g>
</svg>
