<!--?xml version="1.0" encoding="utf-8"?-->
<!-- Generator: Adobe Illustrator 19.1.1, SVG Export Plug-In . SVG Version: 6.00 Build 0)  -->
<svg version="1.1" id="_x31_0" xmlns="http://www.w3.org/2000/svg" xmlns:xlink="http://www.w3.org/1999/xlink" x="0px" y="0px" viewBox="0 0 512 512" style="width: 256px; height: 256px; opacity: 1;" xml:space="preserve">
<style type="text/css">
	.st0{fill:#374149;}
</style>
<g>
	<path class="st0" d="M343.629,272.386H315.43v-27.171l0.004-0.082h-0.004v-0.16H196.488v27.414h-28.278l-35.523,51.59
		l17.957,151.164c1.734,14.41,12.524,26.066,26.863,29.066c25.52,5.117,51.829,7.793,78.454,7.793
		c26.621,0,53.011-2.676,78.453-7.793c14.336-2.918,25.129-14.657,26.859-29.066l18.039-151.164L343.629,272.386z M225.395,301.45
		L225.395,301.45h0.16v-27.485h60.598h0.211v27.485h42.062l20.718,30.015l-16.699,140.207c-0.238,2.05-1.812,3.621-3.859,4.019
		c-47.106,9.61-98.148,9.61-145.25,0c-2.051-0.398-3.626-1.969-3.86-4.019l-16.621-140.207l20.637-30.015h41.648H225.395z" style="fill: rgb(230, 143, 172);"></path>
	<rect x="197.032" y="351.141" class="st0" width="117.938" height="7.875" style="fill: rgb(230, 143, 172);"></rect>
	<rect x="197.032" y="408.914" class="st0" width="117.938" height="7.874" style="fill: rgb(230, 143, 172);"></rect>
	<path class="st0" d="M200.742,229.141h110.516c14.492,0,25.836-12.524,24.496-26.942l-0.789-7.242L315.668,19.774
		C314.567,8.508,305.192,0,293.926,0h-75.855c-11.262,0-20.637,8.508-21.738,19.774l-19.297,175.183l-0.79,7.242
		C174.906,216.617,186.25,229.141,200.742,229.141z M232.879,31.351c3.703,0,6.695,2.997,6.695,6.696v152.969
		c0,1.496-0.469,2.839-1.336,3.941c-1.105,1.653-3.152,2.758-5.359,2.758h-17.328c-2.285,0-4.172-1.106-5.355-2.758
		c-0.946-1.266-1.496-2.836-1.34-4.57l17.328-152.969C226.5,34.031,229.414,31.351,232.879,31.351z" style="fill: rgb(230, 143, 172);"></path>
	<polygon class="st0" points="218.574,385.183 208.957,370.317 204.672,370.317 204.672,394.922 209.285,394.922 209.316,394.922 
		209.316,394.922 209.476,394.922 209.476,386.699 209.605,380.019 219.223,394.922 223.508,394.922 223.508,370.317 
		218.704,370.317 218.704,378.543 	" style="fill: rgb(230, 143, 172);"></polygon>
	<path class="st0" d="M239.496,394.922l1.484-4.355h8.742l1.453,4.355h5.012l-8.984-24.605h-3.77l-6.649,18.277l-2.301,6.168h0.058
		l-0.058,0.16H239.496z M248.395,386.523h-4.691l-1.36-0.046l3.094-8.902l2.281,6.781L248.395,386.523z" style="fill: rgb(230, 143, 172);"></path>
	<polygon class="st0" points="267.742,370.317 267.742,394.922 272.547,394.922 272.547,370.55 272.547,370.477 272.547,370.477 
		272.547,370.317 	" style="fill: rgb(230, 143, 172);"></polygon>
	<polygon class="st0" points="296.164,370.317 291.364,370.317 291.364,394.922 307.328,394.922 307.328,390.809 307.328,390.797 
		307.328,390.797 307.328,390.637 296.164,390.637 	" style="fill: rgb(230, 143, 172);"></polygon>
</g>
</svg>
